# xmcd
#
# Track frame offsets: 
#        150
#        15911
#        31705
#        47252
#        61585
#        76917
#        94053
#        114277
#        127889
#        140963
#        160728
#        175500
#        195577
#
# Disc length: 2851 seconds
#
# Revision: 0
# Processed by: cddbd v1.5.2PL0 Copyright (c) Steve Scherf et al.
# Submitted via: ExactAudioCopy v1.3
#
DISCID=8a0b210d
DTITLE=Bo Porter - New Moon
DYEAR=2018
DGENRE=Country
TTITLE0=I Don't Want To Lose You Anna
TTITLE1=If You Wanna Be My Woman
TTITLE2=There's A New Moon
TTITLE3=Trust Me With Your Heart
TTITLE4=If You Want To Break My Heart
TTITLE5=Your Mare's Been Running Loose
TTITLE6=Occupy My Mind
TTITLE7=Rapid Roy
TTITLE8=Song About Nothing At All
TTITLE9=Trouble In Mind
TTITLE10=Psycho
TTITLE11=Shoeshine Man
TTITLE12=The Rumor Mill
EXTD=
EXTT0=
EXTT1=
EXTT2=
EXTT3=
EXTT4=
EXTT5=
EXTT6=
EXTT7=
EXTT8=
EXTT9=
EXTT10=
EXTT11=
EXTT12=
PLAYORDER=
